<svg xmlns="http://www.w3.org/2000/svg" viewBox="0 0 16 16">
  <defs>
    <style>.canvas{fill: none; opacity: 0;}.light-defaultgrey-10{fill: #212121; opacity: 0.1;}.light-defaultgrey{fill: #212121; opacity: 1;}.light-blue{fill: #005dba; opacity: 1;}.cls-1{opacity:0.75;}</style>
  </defs>
  <title>IconLightCompilableFile</title>
  <g id="canvas">
    <path class="canvas" d="M16,16H0V0H16Z" />
  </g>
  <g id="level-1">
    <g class="cls-1">
      <path class="light-defaultgrey-10" d="M12.5,4.5v10H2.5V1.5h7Z" />
      <path class="light-defaultgrey" d="M12.854,4.146l-3-3L9.5,1h-7L2,1.5v13l.5.5h10l.5-.5V4.5ZM3,14V2H9V5h3v9Z" />
    </g>
    <path class="light-defaultgrey" d="M5,11H4V10H5Zm2-1H6v1H7Zm4,0H10v1h1ZM9,10H8v1H9ZM5,12H4v1H5Zm2,0H6v1H7Zm4,0H10v1h1ZM9,12H8v1H9Z" />
    <path class="light-blue" d="M9.854,6.854l-2,2H7.146l-2-2,.708-.708L7,7.293V3H8V7.293L9.146,6.146Z" />
  </g>
</svg>
