<svg xmlns="http://www.w3.org/2000/svg" viewBox="0 0 16 16">
  <defs>
    <style>.canvas{fill: none; opacity: 0;}.light-defaultgrey-10{fill: #212121; opacity: 0.1;}.light-defaultgrey{fill: #212121; opacity: 1;}</style>
  </defs>
  <title>IconLightDarkTheme</title>
  <g id="Canvas">
    <path class="canvas" d="M16,16H0V0H16Z" />
  </g>
  <g id="level-1">
    <path class="light-defaultgrey-10" d="M6.569,13.431A6.043,6.043,0,0,1,5,13.228a5.783,5.783,0,0,1-1.436-.6,6.109,6.109,0,0,1-1.148-.866l-.677-.652.919-.2c.124-.027.247-.057.368-.091a6.517,6.517,0,0,0,1.638-.7A7.537,7.537,0,0,0,6.051,9.058,6.255,6.255,0,0,0,7.129,7.666a7.458,7.458,0,0,0,.684-1.635,6.65,6.65,0,0,0,.25-1.824,6.874,6.874,0,0,0-.231-1.768l-.3-1.016.905.3A6.189,6.189,0,0,1,9.708,2.3a5.533,5.533,0,0,1,1.167.941,6.846,6.846,0,0,1,.915,1.215,5.42,5.42,0,0,1,.574,1.4,6.794,6.794,0,0,1,.213,1.559,6.03,6.03,0,0,1-.211,1.607,5.76,5.76,0,0,1-.608,1.426,6.813,6.813,0,0,1-.945,1.229,5.451,5.451,0,0,1-1.2.932,6.58,6.58,0,0,1-1.447.606A5.817,5.817,0,0,1,6.569,13.431Z" />
    <path class="light-defaultgrey" d="M8.4,2.316a5.644,5.644,0,0,1,1.015.478,4.98,4.98,0,0,1,1.045.844,6.234,6.234,0,0,1,.837,1.111A4.835,4.835,0,0,1,11.806,6,6.261,6.261,0,0,1,12,7.423a5.444,5.444,0,0,1-.19,1.443,5.137,5.137,0,0,1-.547,1.283,6.132,6.132,0,0,1-.864,1.124,4.861,4.861,0,0,1-1.076.833A5.962,5.962,0,0,1,8,12.658a5.214,5.214,0,0,1-1.433.2,5.461,5.461,0,0,1-1.416-.184,5.225,5.225,0,0,1-1.294-.541,5.538,5.538,0,0,1-.934-.687q.131-.03.258-.066a7.168,7.168,0,0,0,1.782-.759A8.2,8.2,0,0,0,6.453,9.472,6.845,6.845,0,0,0,7.63,7.951,7.993,7.993,0,0,0,8.368,6.19a7.221,7.221,0,0,0,.273-1.983A7.432,7.432,0,0,0,8.4,2.316M6.778,1a6.349,6.349,0,0,1,.645,1.549,6.385,6.385,0,0,1,.218,1.658,6.208,6.208,0,0,1-.235,1.709,6.922,6.922,0,0,1-.645,1.54,5.78,5.78,0,0,1-1,1.3A7.041,7.041,0,0,1,4.45,9.759a6.078,6.078,0,0,1-1.532.653,6.4,6.4,0,0,1-1.709.227A.714.714,0,0,0,1.1,10.63H1a6.8,6.8,0,0,0,1.038,1.348,6.5,6.5,0,0,0,1.315,1.014,6.233,6.233,0,0,0,1.541.644,6.4,6.4,0,0,0,1.675.218,6.2,6.2,0,0,0,1.708-.234,7.025,7.025,0,0,0,1.541-.645,5.838,5.838,0,0,0,1.3-1,7.162,7.162,0,0,0,1.005-1.306,6.174,6.174,0,0,0,.653-1.533A6.387,6.387,0,0,0,13,7.423a7.279,7.279,0,0,0-.226-1.675,5.791,5.791,0,0,0-.62-1.507,7.2,7.2,0,0,0-.971-1.29A5.934,5.934,0,0,0,9.927,1.938a6.659,6.659,0,0,0-1.491-.662A6.5,6.5,0,0,0,6.778,1Z" />
  </g>
</svg>
