<svg xmlns="http://www.w3.org/2000/svg" viewBox="0 0 16 16">
  <defs>
    <style>.canvas{fill: none; opacity: 0;}.light-red{fill: #c50b17; opacity: 1;}.light-defaultgrey{fill: #212121; opacity: 1;}</style>
  </defs>
  <title>IconLightErrorSquiggleActive</title>
  <g id="canvas" class="canvas">
    <path class="canvas" d="M16,0V16H0V0Z" />
  </g>
  <g id="level-1">
    <path class="light-red" d="M11.83,12a1.94,1.94,0,0,1-1.424-.633.939.939,0,0,0-1.489,0,1.915,1.915,0,0,1-2.845,0,.937.937,0,0,0-1.487,0,1.913,1.913,0,0,1-2.843,0A.968.968,0,0,0,1,11V10a1.938,1.938,0,0,1,1.421.633A.968.968,0,0,0,3.163,11a.97.97,0,0,0,.743-.367,1.914,1.914,0,0,1,2.844,0,.938.938,0,0,0,1.488,0,1.917,1.917,0,0,1,2.846,0,.941.941,0,0,0,1.492,0A1.94,1.94,0,0,1,14,10v1a.974.974,0,0,0-.746.367A1.94,1.94,0,0,1,11.83,12Z" />
    <path class="light-defaultgrey" d="M8,5a1.987,1.987,0,0,0-1,.277V3H6V9H7V8.723A2,2,0,1,0,8,5ZM8,8A1,1,0,1,1,9,7,1,1,0,0,1,8,8ZM4,5v.277A2,2,0,1,0,4,8.723V9H5V5ZM3,8A1,1,0,1,1,4,7,1,1,0,0,1,3,8Zm10.994.414a2,2,0,1,1,0-2.828l-.707.707a1,1,0,1,0,0,1.414Z" />
  </g>
</svg>
