<svg xmlns="http://www.w3.org/2000/svg" viewBox="0 0 16 16">
  <defs>
    <style>.canvas{fill: none; opacity: 0;}.light-defaultgrey-10{fill: #212121; opacity: 0.1;}.light-blue{fill: #005dba; opacity: 1;}.white{fill: #ffffff; opacity: 1;}.light-defaultgrey{fill: #212121; opacity: 1;}</style>
  </defs>
  <title>HelpTableOfContents</title>
  <g id="canvas">
    <path class="canvas" d="M16,16H0V0H16Z" />
  </g>
  <g id="level-1">
    <path class="light-defaultgrey-10" d="M7.1,12.954a2.955,2.955,0,0,1-.54-.124A2.917,2.917,0,0,1,6.05,12.6l-.071-.041L5.9,12.54a2,2,0,0,0-.4-.04H.707L.5,12.293V2.707L.707,2.5H5.5a1.982,1.982,0,0,1,1.6.814l.4.539.4-.539A1.982,1.982,0,0,1,9.5,2.5h4.793l.207.207V7.694A4.946,4.946,0,0,0,12,7a4.981,4.981,0,0,0-4.9,5.954Z" />
    <path class="light-blue" d="M12,16a4,4,0,1,1,4-4A4,4,0,0,1,12,16Z" />
    <path class="white" d="M12.625,14.5A.625.625,0,1,1,12,13.875.625.625,0,0,1,12.625,14.5ZM12,9.188a1.731,1.731,0,0,1,.663.125,1.86,1.86,0,0,1,.549.345,1.488,1.488,0,0,1,.368.509,1.608,1.608,0,0,1,.134.628,1.293,1.293,0,0,1-.093.508,1.706,1.706,0,0,1-.248.408,3,3,0,0,1-.348.358q-.2.169-.4.364a.543.543,0,0,0-.167.264,1.532,1.532,0,0,0-.04.3v.1a.8.8,0,0,0,.007.106h-.858v-.3a1.29,1.29,0,0,1,.094-.508A1.692,1.692,0,0,1,11.9,12a1.943,1.943,0,0,1,.314-.314,2.745,2.745,0,0,0,.308-.282c.09-.1.17-.191.241-.283a.457.457,0,0,0,.094-.326.731.731,0,0,0-.067-.314.783.783,0,0,0-.181-.251.922.922,0,0,0-.274-.176A.772.772,0,0,0,12,9.991a.876.876,0,0,0-.335.063.867.867,0,0,0-.268.169.877.877,0,0,0-.187.258.639.639,0,0,0-.067.314h-.857a1.452,1.452,0,0,1,.134-.622,1.719,1.719,0,0,1,.368-.515,1.628,1.628,0,0,1,.542-.345A1.946,1.946,0,0,1,12,9.188Z" />
    <path class="light-defaultgrey" d="M7.244,13.466a3.354,3.354,0,0,1-.85-.163A3.427,3.427,0,0,1,5.8,13.03,1.547,1.547,0,0,0,5.5,13H.5L0,12.5V2.5L.5,2h5a2.491,2.491,0,0,1,2,1.015A2.491,2.491,0,0,1,9.5,2h5l.5.5V8.023a4.935,4.935,0,0,0-1-.6V3H9.5A1.5,1.5,0,0,0,8,4.5V9.027A4.959,4.959,0,0,0,7,12V4.5A1.5,1.5,0,0,0,5.5,3H1v9H5.5a2.482,2.482,0,0,1,1.5.5H7V12A4.938,4.938,0,0,0,7.244,13.466Z" />
  </g>
</svg>
