<svg xmlns="http://www.w3.org/2000/svg" viewBox="0 0 16 16">
  <defs>
    <style>.canvas{fill: none; opacity: 0;}.light-defaultgrey-10{fill: #212121; opacity: 0.1;}.light-defaultgrey{fill: #212121; opacity: 1;}.light-blue{fill: #005dba; opacity: 1;}</style>
  </defs>
  <title>ImportSettings</title>
  <g id="canvas">
    <path class="canvas" d="M16,16H0V0H16Z" />
  </g>
  <g id="level-1">
    <path class="light-defaultgrey-10" d="M14.5,9V7L12,6.5l-.11-.27L13.3,4.11,11.89,2.7,9.77,4.11,9.5,4,9,1.5H7L6.77,2.68l.42.42.66.66V5.3l-.24.24a1.992,1.992,0,0,1,.42-.04A2.475,2.475,0,1,1,5.55,7.97a2.6,2.6,0,0,1,.03-.4l-.57.57-.66.66L2.8,7.25l-.42-.42L1.5,7V9L4,9.5l.11.27L2.7,11.89,4.11,13.3l2.12-1.41L6.5,12,7,14.5H9L9.5,12l.27-.11,2.12,1.41,1.41-1.41L11.89,9.77,12,9.5Z" />
    <path class="light-defaultgrey" d="M8,5a.757.757,0,0,0-.15.01V5.3l-.24.24L5.58,7.57l-.57.57A3,3,0,1,0,8,5ZM8,6A2,2,0,1,1,6,8,2.006,2.006,0,0,1,8,6Zm7,.59-2.43-.48,1.38-2.06-2-2L9.89,3.43,9.41,1H6.59L6.34,2.25l.85.85L7.41,2H8.59l.47,2.36.76.32,2.01-1.34.83.83L11.32,6.18l.32.76L14,7.41V8.59l-2.36.47-.32.76,1.34,2.01-.83.83L9.82,11.32l-.76.32L8.59,14H7.41l-.47-2.36-.76-.32L4.17,12.66l-.83-.83L4.68,9.82l-.32-.76L2,8.59V7.41l.8-.16-.42-.42-.15-.15.41-.41L1,6.59V9.41l2.43.48L2.05,11.95l2,2,2.06-1.38L6.59,15H9.41l.48-2.43,2.06,1.38,2-2L12.57,9.89,15,9.41ZM8,11A3,3,0,0,0,8,5a.757.757,0,0,0-.15.01V5.3l-.24.24L5.58,7.57l-.57.57A3,3,0,0,0,8,11ZM8,6A2,2,0,1,1,6,8,2.006,2.006,0,0,1,8,6ZM8,5a.757.757,0,0,0-.15.01V5.3l-.24.24L5.58,7.57l-.57.57A3,3,0,1,0,8,5ZM8,6A2,2,0,1,1,6,8,2.006,2.006,0,0,1,8,6Z" />
    <path class="light-blue" d="M2.5,0H3V1H2.5a1.5,1.5,0,0,0,0,3H5.258L3.644,2.385l.707-.707,2.5,2.5v.707l-2.5,2.5-.707-.707L5.322,5H2.5a2.5,2.5,0,0,1,0-5Z" />
  </g>
</svg>
