<?xml version="1.0" encoding="UTF-8" standalone="no"?>
<svg
   width="60px"
   height="60px"
   viewBox="0 0 60 60"
   version="1.1"
   id="svg21"
   sodipodi:docname="NeverwinterApp.svg"
   inkscape:version="1.1.2 (b8e25be833, 2022-02-05)"
   xmlns:inkscape="http://www.inkscape.org/namespaces/inkscape"
   xmlns:sodipodi="http://sodipodi.sourceforge.net/DTD/sodipodi-0.dtd"
   xmlns="http://www.w3.org/2000/svg"
   xmlns:svg="http://www.w3.org/2000/svg"
   xmlns:rdf="http://www.w3.org/1999/02/22-rdf-syntax-ns#"
   xmlns:cc="http://creativecommons.org/ns#"
   xmlns:dc="http://purl.org/dc/elements/1.1/"
   xmlns:sketch="http://www.bohemiancoding.com/sketch/ns">
  <sodipodi:namedview
     id="namedview23"
     pagecolor="#ffffff"
     bordercolor="#666666"
     borderopacity="1.0"
     inkscape:pageshadow="2"
     inkscape:pageopacity="0.0"
     inkscape:pagecheckerboard="0"
     showgrid="false"
     inkscape:zoom="13.716667"
     inkscape:cx="30.036451"
     inkscape:cy="30.036451"
     inkscape:window-width="1920"
     inkscape:window-height="1009"
     inkscape:window-x="-8"
     inkscape:window-y="-8"
     inkscape:window-maximized="1"
     inkscape:current-layer="svg21" />
  <!-- Uploaded to SVGRepo https://www.svgrepo.com -->
  <title
     id="title2">Browserscript</title>
  <desc
     id="desc4">Created with Sketch.</desc>
  <defs
     id="defs6" />
  <g
     id="colored"
     stroke="none"
     stroke-width="1"
     fill="none"
     fill-rule="evenodd"
     sketch:type="MSPage">
    <g
       id="Tech_sliced"
       sketch:type="MSLayerGroup"
       transform="translate(-240.000000, 0.000000)" />
    <g
       id="Tech"
       sketch:type="MSLayerGroup"
       transform="translate(-238.000000, 7.000000)"
       stroke-linecap="round"
       stroke="#314E55"
       stroke-width="2">
      <g
         id="Browserscript"
         transform="translate(240.000000, 0.000000)"
         sketch:type="MSShapeGroup">
        <rect
           id="Rectangle-435"
           fill="#EAEAEA"
           x="0"
           y="8"
           width="56"
           height="38"
           style="fill:none" />
        <rect
           id="Rectangle-436"
           fill="#5ECC66"
           x="0"
           y="0"
           width="56"
           height="8" />
        <circle
           id="Oval-475"
           cx="4"
           cy="4"
           r="1" />
        <circle
           id="Oval-476"
           cx="9"
           cy="4"
           r="1" />
        <circle
           id="Oval-477"
           cx="14"
           cy="4"
           r="1" />
      </g>
    </g>
  </g>
  <path
     d="m 13.362831,17.157445 c -1.228958,0.418683 -2.023875,1.132574 -2.384691,2.148438 -0.135982,0.363738 -0.162136,0.535373 -0.183048,1.132504 -0.03139,0.899191 0.05756,1.606174 0.43405,3.411384 0.439291,2.114046 0.596196,3.177955 0.627556,4.221278 0.04187,1.317859 -0.0837,1.510031 -0.643214,1.009017 -1.5898317,-1.400277 -3.7915172,-2.320022 -4.2203411,-1.757185 -0.1046208,0.130473 -0.068016,0.247105 0.224864,0.734445 0.1307226,0.219633 0.3556205,0.590273 0.4916421,0.823671 0.4392262,0.734411 0.7372784,1.667923 0.841924,2.635736 l 0.0314,0.295161 -0.9517993,0.610878 c -1.2655562,0.809936 -2.253992,1.317862 -3.4620219,1.757145 -0.345165,0.123479 -0.606631,0.411825 -0.606631,0.665787 0,0.260856 0.2509882,0.700115 0.5438888,0.954098 0.1464256,0.123471 0.559551,0.404971 0.9203914,0.617762 0.360868,0.212758 1.0511585,0.638357 1.5375879,0.947214 0.4811035,0.302028 0.8889918,0.555968 0.899442,0.555968 0.00996,0 0.8628903,0.555967 1.8931624,1.228634 1.9976917,1.311001 3.1482277,2.134695 3.6293747,2.60141 l 0.292841,0.281405 0.03144,0.604057 c 0.120245,2.175837 0.277135,3.644738 0.533404,4.96947 0.334688,1.763987 0.794898,2.910298 1.223732,3.047538 0.188283,0.06167 0.334678,-0.171541 0.470676,-0.754977 0.256256,-1.111951 0.460207,-1.743455 0.706006,-2.230798 0.496883,-0.960954 1.537515,-1.942451 2.358605,-2.223932 0.507239,-0.171547 0.491546,-0.1853 0.491546,0.391278 0,0.281413 0.03646,0.645251 0.0837,0.830528 0.115031,0.439268 0.52291,1.008983 0.894233,1.249237 0.271949,0.178434 0.355618,0.199049 0.82625,0.199049 0.475928,0 0.549146,-0.02024 0.826306,-0.199049 0.585751,-0.391243 0.925647,-1.111968 0.967487,-2.052288 0.02083,-0.507958 0.03136,-0.53543 0.135978,-0.507958 0.266727,0.08226 2.431792,0.501076 3.786263,0.727557 l 1.479998,0.247102 0.0092,0.583472 c 0.02593,0.995261 0.371313,1.722849 1.014538,2.141506 0.303334,0.192208 0.387027,0.219636 0.821063,0.219636 0.439299,0.0048 0.512514,-0.01254 0.82628,-0.219636 0.632799,-0.404959 0.930901,-1.057075 0.972731,-2.107145 l 0.02593,-0.624695 1.129599,-0.19218 c 1.166203,-0.192175 2.996632,-0.535394 3.645055,-0.686414 l 0.371315,-0.08222 0.03127,0.514819 c 0.02073,0.288262 0.07315,0.665775 0.120295,0.844258 0.115051,0.446136 0.481133,0.96776 0.847223,1.201181 0.266648,0.171562 0.355587,0.192171 0.821022,0.192171 0.669403,0 0.951741,-0.151041 1.354504,-0.727591 0.334718,-0.473579 0.470652,-0.919707 0.470652,-1.585566 l 0.0049,-0.466744 h 0.162157 c 0.198754,0 0.805345,0.240255 1.093014,0.432459 0.115021,0.07532 0.350361,0.260783 0.522971,0.411818 1.030243,0.906038 1.506163,1.79832 1.851238,3.4457 0.07835,0.398098 0.188356,0.782446 0.240605,0.857998 0.16218,0.233335 0.350415,0.171536 0.606648,-0.192221 0.622389,-0.878659 1.061668,-3.033845 1.380691,-6.760932 0.06781,-0.81681 0.141121,-1.523764 0.156859,-1.558112 0.01548,-0.04107 0.16733,-0.185334 0.329469,-0.329458 0.271992,-0.240245 0.481146,-0.398127 1.291729,-0.988414 0.899555,-0.658934 5.328976,-3.493737 6.683474,-4.28307 0.878574,-0.507924 1.344013,-1.043332 1.344013,-1.537536 0,-0.26083 -0.266718,-0.528516 -0.685109,-0.686419 -1.302027,-0.49414 -2.138778,-0.926574 -3.430439,-1.763977 l -0.904751,-0.583425 0.03121,-0.288291 c 0.109927,-1.008996 0.413154,-1.915017 0.920456,-2.752379 0.648423,-1.057088 0.721692,-1.194348 0.721692,-1.338501 0,-0.487331 -1.270824,-0.302007 -2.457946,0.370671 -0.596225,0.329455 -1.239411,0.782465 -1.793796,1.24921 -0.19347,0.1647 -0.397431,0.302003 -0.449714,0.302003 -0.235247,0 -0.31377,-0.789329 -0.19355,-1.949337 0.1099,-1.009003 0.251127,-1.85326 0.622387,-3.754536 0.538732,-2.718104 0.523046,-3.878128 -0.06266,-4.921424 -0.256293,-0.453014 -0.800139,-0.940374 -1.39106,-1.242375 -0.512501,-0.260803 -1.108784,-0.466744 -1.161031,-0.398118 -0.01541,0.02045 0,0.322629 0.03642,0.665813 0.209217,2.120963 -0.554323,4.605674 -1.966331,6.383441 -0.25619,0.322574 -0.590877,0.672676 -0.742507,0.775637 l -0.271619,0.192176 -0.303265,-0.233393 c -0.481168,-0.384386 -2.227866,-1.510058 -2.965236,-1.915043 -2.128479,-1.17378 -3.969309,-1.81206 -6.275575,-2.182725 -2.274896,-0.363773 -4.842664,-0.363773 -7.13847,0 -3.007063,0.480524 -5.407453,1.489526 -8.644594,3.658476 L 16.677178,25.11284 16.44185,24.941247 c -0.125432,-0.0891 -0.392149,-0.363845 -0.585665,-0.610923 -1.60549,-2.024874 -2.410848,-4.797867 -2.044785,-7.021725 0.02088,-0.137287 0.02612,-0.267738 0.0053,-0.274593 -0.01557,-0.01269 -0.219675,0.04112 -0.455028,0.123532 z m 17.200315,9.883995 c -0.10461,2.402386 -0.512501,5.484279 -0.779222,5.834321 -0.115063,0.151028 -0.167336,0.130463 -0.282403,-0.123491 -0.256259,-0.542246 -0.496799,-2.319998 -0.653696,-4.818477 -0.04172,-0.67264 -0.07837,-1.24923 -0.07837,-1.269817 0,-0.02034 0.407913,-0.03417 0.904724,-0.03417 h 0.904734 z m -3.937922,0.253994 c 0.15689,1.441412 0.658925,3.356409 1.605497,6.11574 0.09936,0.295154 0.167339,0.555964 0.151687,0.576568 -0.04178,0.05476 -0.920441,-0.144179 -1.652595,-0.363821 -2.855376,-0.871684 -5.19826,-2.841647 -6.071623,-5.113594 l -0.151621,-0.398083 0.298071,-0.109828 c 0.16733,-0.0616 0.376521,-0.144125 0.460197,-0.171574 0.75306,-0.295155 4.340591,-1.063882 5.104136,-1.091358 l 0.193493,-0.0058 z m 7.358101,-0.459902 c 2.170317,0.302045 5.245335,1.063908 5.245335,1.304158 0,0.102962 -0.235347,0.672656 -0.413135,0.995271 -1.009274,1.825789 -2.688038,3.232877 -4.926324,4.12521 -0.695532,0.274532 -2.018641,0.638347 -2.62529,0.713863 l -0.350384,0.04783 0.109822,-0.329429 c 1.082538,-3.239782 1.521839,-4.845916 1.710106,-6.294228 l 0.08884,-0.66576 h 0.198718 c 0.104609,0 0.53866,0.04785 0.962251,0.1029 z m -15.103221,2.759294 c 0.266718,0.720715 0.355625,0.919771 0.836734,1.908188 0.580488,1.194308 1.799016,2.930865 2.651485,3.788859 0.522924,0.528506 1.228942,1.187458 1.328296,1.242347 0.04173,0.02024 0.209179,0.14418 0.36608,0.281431 1.019772,0.851155 3.085493,1.798366 4.513182,2.072897 0.554346,0.109795 2.133708,0.10294 2.703725,0 2.023883,-0.384385 4.032038,-1.510046 5.83107,-3.274039 0.3922,-0.384431 0.449725,-0.453055 1.098203,-1.228677 1.051162,-1.256073 2.102342,-3.136789 2.714221,-4.866528 0.130723,-0.363722 0.256214,-0.658906 0.282361,-0.658906 0.04177,0 0.517747,0.219668 1.396327,0.645222 0.51774,0.25395 1.783328,0.9884 2.562522,1.489456 2.520721,1.619871 3.733995,2.992666 3.739205,4.214436 0,0.528507 -0.355601,0.679543 -1.798979,0.796213 -0.491632,0.04113 -1.014524,0.116629 -1.166224,0.171601 -0.261419,0.09602 -0.590917,0.384368 -0.590917,0.514772 0,0.04107 -0.0784,0.233379 -0.177847,0.43242 -0.29284,0.597174 -0.392216,0.645227 -1.532286,0.761915 -0.538624,0.05473 -1.255109,0.164781 -1.584603,0.240229 -1.155718,0.2677 -2.59912,0.844253 -3.817621,1.530656 -1.255119,0.700106 -2.792632,1.228645 -4.4452,1.516899 -1.474758,0.260844 -2.170303,0.31575 -3.833323,0.31575 -3.284223,0 -6.055938,-0.583419 -8.200093,-1.715967 -2.233054,-1.187454 -3.869971,-1.729663 -5.72122,-1.887567 -0.25629,-0.02025 -0.580493,-0.07539 -0.716465,-0.109822 -0.303357,-0.08921 -0.611872,-0.432413 -0.821059,-0.906017 -0.313789,-0.727578 -0.449769,-0.789316 -1.704868,-0.871715 -1.370182,-0.08921 -1.819916,-0.226521 -1.887877,-0.583448 -0.04192,-0.226501 0.01551,-0.610874 0.146424,-0.995245 0.22487,-0.645211 1.338762,-1.853272 2.473563,-2.676909 0.172602,-0.123539 0.418425,-0.302035 0.549168,-0.398121 0.826256,-0.610876 4.173274,-2.464146 4.476574,-2.484755 0.03138,0 0.183031,0.32944 0.329442,0.734429 z"
     id="path2"
     style="stroke-width:0.00599104" />
  <metadata
     id="metadata2170">
    <rdf:RDF>
      <cc:Work
         rdf:about="">
        <dc:title>Browserscript</dc:title>
      </cc:Work>
    </rdf:RDF>
  </metadata>
</svg>
