<?xml version="1.0" encoding="UTF-8" standalone="no"?>
<svg
   width="60px"
   height="60px"
   viewBox="0 0 60 60"
   version="1.1"
   id="svg21"
   sodipodi:docname="NeverwinterApp.svg"
   inkscape:version="1.1.2 (b8e25be833, 2022-02-05)"
   xmlns:inkscape="http://www.inkscape.org/namespaces/inkscape"
   xmlns:sodipodi="http://sodipodi.sourceforge.net/DTD/sodipodi-0.dtd"
   xmlns="http://www.w3.org/2000/svg"
   xmlns:svg="http://www.w3.org/2000/svg"
   xmlns:rdf="http://www.w3.org/1999/02/22-rdf-syntax-ns#"
   xmlns:cc="http://creativecommons.org/ns#"
   xmlns:dc="http://purl.org/dc/elements/1.1/"
   xmlns:sketch="http://www.bohemiancoding.com/sketch/ns">
  <sodipodi:namedview
     id="namedview23"
     pagecolor="#ffffff"
     bordercolor="#666666"
     borderopacity="1.0"
     inkscape:pageshadow="2"
     inkscape:pageopacity="0.0"
     inkscape:pagecheckerboard="0"
     showgrid="false"
     inkscape:zoom="13.716667"
     inkscape:cx="29.963548"
     inkscape:cy="30.036452"
     inkscape:window-width="1920"
     inkscape:window-height="1009"
     inkscape:window-x="-8"
     inkscape:window-y="-8"
     inkscape:window-maximized="1"
     inkscape:current-layer="svg21" />
  <!-- Uploaded to SVGRepo https://www.svgrepo.com -->
  <title
     id="title2">Browserscript</title>
  <desc
     id="desc4">Created with Sketch.</desc>
  <defs
     id="defs6" />
  <g
     id="colored"
     stroke="none"
     stroke-width="1"
     fill="none"
     fill-rule="evenodd"
     sketch:type="MSPage">
    <g
       id="Tech_sliced"
       sketch:type="MSLayerGroup"
       transform="translate(-240.000000, 0.000000)" />
    <g
       id="Tech"
       sketch:type="MSLayerGroup"
       transform="translate(-238.000000, 7.000000)"
       stroke-linecap="round"
       stroke="#314E55"
       stroke-width="2">
      <g
         id="Browserscript"
         transform="translate(240.000000, 0.000000)"
         sketch:type="MSShapeGroup">
        <rect
           id="Rectangle-435"
           fill="#EAEAEA"
           x="0"
           y="8"
           width="56"
           height="38" />
        <rect
           id="Rectangle-436"
           fill="#5ECC66"
           x="0"
           y="0"
           width="56"
           height="8" />
        <circle
           id="Oval-475"
           cx="4"
           cy="4"
           r="1" />
        <circle
           id="Oval-476"
           cx="9"
           cy="4"
           r="1" />
        <circle
           id="Oval-477"
           cx="14"
           cy="4"
           r="1" />
      </g>
    </g>
  </g>
  <path
     d="m 15.239102,16.462056 c -1.107698,0.287519 -1.824181,0.777772 -2.149398,1.475394 -0.122565,0.249792 -0.146136,0.367657 -0.164987,0.777723 -0.02826,0.617499 0.0519,1.103007 0.391225,2.342703 0.395948,1.451775 0.537372,2.182395 0.565633,2.898877 0.03769,0.905011 -0.07541,1.036985 -0.579746,0.692918 -1.432964,-0.961611 -3.4174126,-1.593221 -3.8039256,-1.206706 -0.094298,0.08959 -0.061304,0.169691 0.2026771,0.50436 0.117825,0.150834 0.3205345,0.40536 0.4431345,0.565642 0.395887,0.504343 0.664531,1.145414 0.758852,1.810034 l 0.02825,0.202699 -0.85789,0.419511 c -1.140685,0.556202 -2.0315932,0.905011 -3.1204287,1.206682 -0.311108,0.08483 -0.5467755,0.282815 -0.5467755,0.457215 0,0.179138 0.2262236,0.480787 0.4902239,0.655209 0.1319785,0.08482 0.504341,0.278101 0.8295783,0.424229 0.3252612,0.146114 0.9474418,0.438382 1.3858759,0.650484 0.4336336,0.207409 0.8012756,0.381804 0.8106967,0.381804 0.00931,0 0.7777504,0.381801 1.7063664,0.843732 1.800584,0.900308 2.837598,1.465961 3.271265,1.786474 l 0.263948,0.19324 0.02831,0.414827 c 0.108382,1.494209 0.249796,2.502953 0.480776,3.412682 0.301659,1.211383 0.716467,1.998587 1.102985,2.092836 0.169708,0.04233 0.301656,-0.117801 0.424235,-0.51846 0.230973,-0.763617 0.414802,-1.19729 0.636348,-1.531957 0.447856,-0.659917 1.385809,-1.333942 2.125888,-1.527245 0.457186,-0.117805 0.44304,-0.127246 0.44304,0.268702 0,0.193254 0.03289,0.443109 0.07544,0.570355 0.103679,0.301656 0.471316,0.692895 0.805996,0.857881 0.245119,0.12254 0.320535,0.136695 0.74473,0.136695 0.428966,0 0.49496,-0.01395 0.74477,-0.136695 0.52796,-0.268676 0.834319,-0.763616 0.872029,-1.409368 0.01875,-0.348825 0.02823,-0.367692 0.122563,-0.348825 0.240408,0.05647 2.19185,0.344102 3.412676,0.499637 l 1.333971,0.169688 0.0092,0.400686 c 0.0234,0.683472 0.334672,1.183131 0.914435,1.470636 0.273404,0.132001 0.348837,0.150831 0.740049,0.150831 0.395951,0.0048 0.461943,-0.0092 0.744753,-0.150831 0.570357,-0.278095 0.839046,-0.725921 0.876752,-1.447038 l 0.02339,-0.428995 1.018143,-0.131978 c 1.051136,-0.13197 2.700956,-0.367667 3.285404,-0.471381 l 0.334674,-0.05644 0.02815,0.353546 c 0.01865,0.19796 0.06591,0.457208 0.108431,0.579772 0.103695,0.306375 0.433655,0.664591 0.763624,0.82489 0.240338,0.117815 0.320503,0.131967 0.740015,0.131967 0.603355,0 0.857832,-0.103722 1.220853,-0.499659 0.301698,-0.325214 0.424218,-0.631589 0.424218,-1.088852 l 0.0049,-0.320526 h 0.146116 c 0.179149,0 0.725882,0.164989 0.985172,0.296982 0.103673,0.05177 0.315791,0.179085 0.47137,0.282807 0.928586,0.622203 1.357547,1.234958 1.668578,2.366269 0.07068,0.273379 0.169769,0.537322 0.216868,0.58921 0.146168,0.160236 0.315837,0.117799 0.546789,-0.132003 0.560978,-0.603403 0.956912,-2.083433 1.244459,-4.642939 0.06115,-0.560922 0.127198,-1.04641 0.141381,-1.069997 0.01402,-0.02815 0.150822,-0.127274 0.296963,-0.226255 0.245156,-0.16498 0.433671,-0.273398 1.164274,-0.67877 0.810796,-0.452505 4.803175,-2.399252 6.024025,-2.941308 0.791886,-0.34881 1.2114,-0.716487 1.2114,-1.05587 0,-0.179122 -0.240397,-0.362951 -0.617508,-0.471389 -1.173643,-0.339345 -1.927832,-0.636312 -3.092041,-1.211384 l -0.815482,-0.400651 0.02809,-0.197978 c 0.09908,-0.692906 0.372391,-1.315104 0.829641,-1.890147 0.58444,-0.725929 0.650481,-0.820188 0.650481,-0.919185 0,-0.334665 -1.145431,-0.2074 -2.215425,0.254549 -0.537393,0.226251 -1.117119,0.537347 -1.6168,0.857878 -0.174385,0.113099 -0.358222,0.207392 -0.405347,0.207392 -0.212035,0 -0.282812,-0.542062 -0.17445,-1.338675 0.09905,-0.692907 0.22635,-1.272685 0.56098,-2.578353 0.48557,-1.866596 0.471433,-2.66322 -0.05646,-3.379684 -0.231007,-0.311098 -0.721186,-0.645779 -1.253804,-0.85317 -0.461934,-0.179105 -0.999385,-0.320527 -1.046473,-0.273399 -0.01394,0.01411 0,0.221551 0.03284,0.45723 0.188574,1.456528 -0.499624,3.162852 -1.772316,4.383694 -0.23091,0.221526 -0.532573,0.461948 -0.669246,0.532656 l -0.244816,0.131971 -0.273343,-0.160274 c -0.43374,-0.263978 -2.008092,-1.037009 -2.672707,-1.315125 -1.918464,-0.80607 -3.577663,-1.244394 -5.656374,-1.498942 -2.050433,-0.249814 -4.364842,-0.249814 -6.434128,0 -2.710355,0.329988 -4.873908,1.022901 -7.791643,2.512385 l -0.938002,0.47608 -0.212101,-0.117835 C 17.902324,21.746251 17.66192,21.557575 17.487501,21.3879 16.04042,19.997354 15.314529,18.093058 15.644473,16.565867 c 0.0188,-0.09431 0.02357,-0.183857 0.0053,-0.188569 -0.01406,-0.0093 -0.197999,0.02819 -0.410135,0.08483 z m 15.503186,6.78763 c -0.09428,1.649795 -0.461936,3.76622 -0.702338,4.006602 -0.103708,0.103717 -0.150823,0.08961 -0.254536,-0.08481 -0.230975,-0.37238 -0.447786,-1.59321 -0.589197,-3.308992 -0.03754,-0.461923 -0.07067,-0.857884 -0.07067,-0.872021 0,-0.01402 0.36766,-0.02349 0.815454,-0.02349 h 0.815462 z m -3.549372,0.174429 c 0.14141,0.989859 0.593914,2.304944 1.447086,4.199859 0.08958,0.202688 0.150828,0.381794 0.136717,0.395942 -0.0376,0.03757 -0.829621,-0.099 -1.489531,-0.249843 -2.573641,-0.598611 -4.685358,-1.951445 -5.472545,-3.511653 l -0.136663,-0.273383 0.268658,-0.07541 c 0.150824,-0.0423 0.339372,-0.09897 0.414792,-0.117826 0.678758,-0.202688 3.912314,-0.730601 4.60052,-0.749464 l 0.174404,-0.0052 z m 6.632086,-0.315828 c 1.956174,0.207419 4.727785,0.730617 4.727785,0.8956 0,0.07069 -0.212125,0.461935 -0.372369,0.683483 -0.909691,1.253825 -2.422814,2.220117 -4.44025,2.832904 -0.62691,0.18853 -1.819465,0.438374 -2.366257,0.490229 l -0.315813,0.03283 0.09898,-0.226236 c 0.975725,-2.224852 1.371683,-3.32783 1.541371,-4.322433 l 0.08013,-0.457193 h 0.179108 c 0.0943,0 0.485511,0.03282 0.867306,0.07065 z m -13.613007,1.894887 c 0.240402,0.494934 0.320541,0.631635 0.754176,1.310405 0.523212,0.820173 1.621508,2.012718 2.389869,2.601925 0.471325,0.362944 1.107681,0.815465 1.197231,0.853157 0.03755,0.01395 0.18854,0.09901 0.329959,0.193269 0.919156,0.584509 2.781056,1.234989 4.067875,1.423518 0.49965,0.07539 1.923176,0.07069 2.436951,0 1.824189,-0.263966 3.634202,-1.036999 5.255724,-2.248378 0.353505,-0.264001 0.405357,-0.311127 0.98985,-0.843768 0.947442,-0.862582 1.894906,-2.154133 2.446415,-3.341992 0.11782,-0.249776 0.230927,-0.452489 0.254495,-0.452489 0.03759,0 0.466665,0.15085 1.258555,0.443089 0.46666,0.174398 1.607371,0.678767 2.30968,1.022857 2.27201,1.112415 3.365572,2.055149 3.370265,2.89418 0,0.362942 -0.320514,0.466655 -1.621476,0.546779 -0.443123,0.02819 -0.914419,0.08009 -1.051157,0.117843 -0.235626,0.06594 -0.532613,0.263958 -0.532613,0.353511 0,0.02816 -0.07069,0.160271 -0.160299,0.296956 -0.263942,0.410099 -0.353512,0.4431 -1.381094,0.523233 -0.48548,0.03758 -1.131272,0.113154 -1.428254,0.164967 -1.041686,0.183839 -2.342666,0.579782 -3.440942,1.051151 -1.131275,0.480784 -2.517085,0.843747 -4.006597,1.041696 -1.329247,0.179133 -1.956161,0.216837 -3.455094,0.216837 -2.960177,0 -5.458409,-0.400654 -7.391002,-1.178408 -2.012725,-0.815456 -3.488127,-1.18781 -5.156716,-1.296243 -0.231001,-0.01395 -0.523218,-0.0518 -0.64577,-0.07541 -0.273424,-0.0612 -0.551502,-0.296947 -0.740049,-0.622186 -0.282831,-0.499648 -0.405394,-0.542045 -1.536651,-0.59863 -1.234989,-0.06123 -1.640351,-0.155564 -1.701606,-0.400677 -0.03774,-0.155542 0.01405,-0.419502 0.131977,-0.683461 0.202684,-0.443083 1.206669,-1.272693 2.229504,-1.838315 0.155573,-0.08484 0.377138,-0.207413 0.49498,-0.273397 0.74473,-0.419508 3.761503,-1.692203 4.034878,-1.706356 0.02825,0 0.16497,0.226236 0.296936,0.504355 z"
     id="path2"
     style="stroke-width:0.00471345" />
  <path
     d="m 21.894779,38.163665 c -0.174393,0.193266 -0.391233,0.895584 -0.593931,1.923207 -0.523209,2.653762 -0.565632,5.613925 -0.09899,6.853636 0.131995,0.348777 0.386529,0.63632 0.617491,0.707021 0.928595,0.27809 1.428259,-1.112414 1.352821,-3.752053 -0.08012,-2.549986 -0.598636,-5.37829 -1.06529,-5.764789 -0.09427,-0.07542 -0.117831,-0.07068 -0.212104,0.03286 z"
     id="path4"
     style="stroke-width:0.00471345" />
  <path
     d="m 38.123861,38.173116 c -0.362971,0.362936 -0.829586,2.634904 -0.985145,4.765478 -0.09431,1.36227 -0.04703,2.729225 0.127302,3.502195 0.146077,0.659838 0.461883,1.145459 0.796561,1.23033 0.589219,0.150791 1.008723,-0.386532 1.225514,-1.560206 0.132012,-0.716547 0.12257,-2.771687 -0.01869,-4.067894 -0.221541,-1.993896 -0.641018,-3.714375 -0.95217,-3.912332 -0.08012,-0.04704 -0.108391,-0.0423 -0.193242,0.04231 z"
     id="path6"
     style="stroke-width:0.00471345" />
  <path
     d="m 30.025821,38.955629 c -0.131997,0.259196 -0.212115,0.617468 -0.377099,1.61673 -0.433658,2.63024 -0.692907,6.853567 -0.57977,9.361294 0.06593,1.338645 0.136695,2.012698 0.29696,2.65849 0.183821,0.749461 0.53736,1.220855 0.867296,1.159557 0.551509,-0.113118 0.872039,-1.145406 1.018154,-3.280646 0.06593,-1.022948 0.02814,-3.87463 -0.07068,-5.397252 -0.23097,-3.42197 -0.67406,-6.184219 -1.004001,-6.283206 -0.03286,-0.0094 -0.099,0.06594 -0.150836,0.165033 z"
     id="path8"
     style="stroke-width:0.00471345" />
  <metadata
     id="metadata2170">
    <rdf:RDF>
      <cc:Work
         rdf:about="">
        <dc:title>Browserscript</dc:title>
      </cc:Work>
    </rdf:RDF>
  </metadata>
</svg>
