<svg xmlns="http://www.w3.org/2000/svg" viewBox="0 0 16 16">
  <defs>
    <style>.canvas{fill: none; opacity: 0;}.light-defaultgrey-10{fill: #212121; opacity: 0.1;}.light-defaultgrey{fill: #212121; opacity: 1;}</style>
  </defs>
  <title>IconLightReport</title>
  <g id="canvas" class="canvas">
    <path class="canvas" d="M16,16H0V0H16Z" />
  </g>
  <g id="level-1">
    <path class="light-defaultgrey-10" d="M13.5,4.5v10H2.5V1.5h8Z" />
    <path class="light-defaultgrey" d="M13.854,4.146l-3-3L10.5,1h-8L2,1.5v13l.5.5h11l.5-.5V4.5ZM13,14H3V2h7V5h3Z" />
    <path class="light-defaultgrey" d="M8.5,10l.5.5v2l-.5.5h-1L7,12.5v-2l.5-.5Zm3-2h-1l-.5.5v4l.5.5h1l.5-.5v-4ZM4,8H6V9H4ZM4,4V5H9V4ZM4,7H7V6H4Z" />
  </g>
</svg>
