<svg xmlns="http://www.w3.org/2000/svg" viewBox="0 0 16 16">
  <defs>
    <style>.canvas{fill: none; opacity: 0;}.light-defaultgrey-10{fill: #212121; opacity: 0.1;}.light-defaultgrey{fill: #212121; opacity: 1;}.cls-1{opacity:0.75;}</style>
  </defs>
  <title>SettingsGroup</title>
  <g id="canvas">
    <path class="canvas" d="M16,0V16H0V0Z" />
  </g>
  <g id="level-1">
    <g class="cls-1">
      <path class="light-defaultgrey-10" d="M14.5,6.5v-1l-1.09-.27a3.412,3.412,0,0,0-.46-1.09l.59-.97-.71-.71-.97.59a3.412,3.412,0,0,0-1.09-.46L10.5,1.5h-1L9.23,2.59a3.412,3.412,0,0,0-1.09.46l-.97-.59-.71.71.5.83h.71l.31,1.23.78-.47.3-.18.33.33a1.249,1.249,0,0,1,1.7,1.7l.33.33-.18.3-.47.78L12,8.33v.71l.83.5.71-.71-.59-.97a3.412,3.412,0,0,0,.46-1.09Z" />
      <path class="light-defaultgrey" d="M13.81,7.19a3.525,3.525,0,0,1-.28.67l.64,1.05-1.26,1.26L12,9.62V8.46l.75.45.16-.16-.54-.9.16-.26a2.711,2.711,0,0,0,.39-.93l.07-.3L14,6.11V5.89l-1.01-.25-.07-.3a2.711,2.711,0,0,0-.39-.93l-.16-.26.54-.9-.16-.16-.9.54-.26-.16a2.711,2.711,0,0,0-.93-.39l-.3-.07L10.11,2H9.89L9.64,3.01l-.3.07a2.711,2.711,0,0,0-.93.39l-.26.16-.9-.54-.16.16L7.54,4H6.38l-.55-.91L7.09,1.83l1.05.63a4.267,4.267,0,0,1,.67-.27L9.11,1h1.78l.3,1.19a4.267,4.267,0,0,1,.67.27l1.05-.63,1.26,1.26-.64,1.05a3.525,3.525,0,0,1,.28.67l1.19.3V6.89ZM11.75,6A1.748,1.748,0,0,0,9.027,4.547l.743.743A.587.587,0,0,1,10,5.25a.755.755,0,0,1,.75.75.587.587,0,0,1-.04.23l.743.743A1.764,1.764,0,0,0,11.75,6Z" />
    </g>
    <path class="light-defaultgrey-10" d="M10.5,10.5v-1L9.408,9.227A3.483,3.483,0,0,0,8.955,8.14l.581-.968-.708-.708-.968.581a3.483,3.483,0,0,0-1.087-.453L6.5,5.5h-1L5.227,6.592a3.483,3.483,0,0,0-1.087.453l-.968-.581-.708.708.581.968a3.483,3.483,0,0,0-.453,1.087L1.5,9.5v1l1.092.273a3.483,3.483,0,0,0,.453,1.087l-.581.968.708.708.968-.581a3.483,3.483,0,0,0,1.087.453L5.5,14.5h1l.273-1.092a3.483,3.483,0,0,0,1.087-.453l.968.581.708-.708-.581-.968a3.483,3.483,0,0,0,.453-1.087ZM6,11.25A1.25,1.25,0,1,1,7.25,10,1.25,1.25,0,0,1,6,11.25Z" />
    <path class="light-defaultgrey" d="M6,8.25A1.75,1.75,0,1,0,7.75,10,1.752,1.752,0,0,0,6,8.25Zm0,2.5A.75.75,0,1,1,6.75,10,.751.751,0,0,1,6,10.75Zm5,.141V9.109l-1.186-.3a3.955,3.955,0,0,0-.279-.667l.631-1.05-1.26-1.26-1.051.63a3.931,3.931,0,0,0-.668-.279L6.891,5H5.109l-.3,1.186a3.931,3.931,0,0,0-.668.279l-1.051-.63L1.834,7.1l.631,1.05a3.955,3.955,0,0,0-.279.667L1,9.109v1.782l1.186.3a3.955,3.955,0,0,0,.279.667l-.631,1.05,1.26,1.26,1.051-.63a3.931,3.931,0,0,0,.668.279L5.109,15H6.891l.3-1.186a3.931,3.931,0,0,0,.668-.279l1.051.63,1.26-1.26-.631-1.05a3.955,3.955,0,0,0,.279-.667Zm-2.012-.528-.068.3a2.956,2.956,0,0,1-.388.931l-.165.26.539.9-.155.154-.9-.537-.26.164a2.992,2.992,0,0,1-.931.389l-.3.067L6.109,14H5.891l-.253-1.012-.3-.067a2.992,2.992,0,0,1-.931-.389l-.26-.164-.9.537-.155-.154.539-.9-.165-.26a2.956,2.956,0,0,1-.388-.931l-.068-.3L2,10.109V9.891l1.012-.254.068-.3a2.956,2.956,0,0,1,.388-.931l.165-.26-.539-.9L3.249,7.1l.9.537.26-.164a2.992,2.992,0,0,1,.931-.389l.3-.067L5.891,6h.218l.253,1.012.3.067a2.992,2.992,0,0,1,.931.389l.26.164.9-.537.155.154-.539.9.165.26a2.956,2.956,0,0,1,.388.931l.068.3L10,9.891v.218Z" />
  </g>
</svg>
