<svg xmlns="http://www.w3.org/2000/svg" viewBox="0 0 16 16">
  <defs>
    <style>.canvas{fill: none; opacity: 0;}.light-defaultgrey-10{fill: #212121; opacity: 0.1;}.light-defaultgrey{fill: #212121; opacity: 1;}</style>
  </defs>
  <title>ShowAssignedConfigurations</title>
  <g id="canvas">
    <path class="canvas" d="M16,16H0V0H16Z" />
  </g>
  <g id="level-1">
    <path class="light-defaultgrey-10" d="M9,8.5a3,3,0,1,1,3-3A3,3,0,0,1,9,8.5Zm0,0a4.482,4.482,0,0,0-2.13.53c.02.09.04.18.06.28a2.166,2.166,0,0,1,.04.25,3.985,3.985,0,0,1-.12,1.46L8.83,13H13.5A4.494,4.494,0,0,0,9,8.5Z" />
    <path class="light-defaultgrey" d="M10.96,8.4a3.5,3.5,0,1,0-4.82-.88,3.583,3.583,0,0,0,.9.88c-.11.05-.21.1-.32.15a3.368,3.368,0,0,1,.15.48c.02.09.04.18.06.28a2.166,2.166,0,0,1,.04.25A3.918,3.918,0,0,1,9,9a4,4,0,0,1,4,4h1A5.015,5.015,0,0,0,10.96,8.4ZM9,3A2.5,2.5,0,1,1,6.5,5.5,2.5,2.5,0,0,1,9,3Z" />
    <path class="light-defaultgrey" d="M.042,10.5A2.994,2.994,0,0,1,.3,8.705L2.286,10.7,3.7,9.282l-2-1.991a2.983,2.983,0,0,1,3.988,3.983L9,14.586v.707L8.3,16H7.59L4.278,12.688A2.98,2.98,0,0,1,.042,10.5Z" />
  </g>
</svg>
