<?xml version="1.0" encoding="UTF-8" standalone="no"?>
<svg
   viewBox="0 0 16 16"
   version="1.1"
   id="svg276"
   sodipodi:docname="UserBuildRemove.svg"
   inkscape:version="1.1.2 (b8e25be833, 2022-02-05)"
   xmlns:inkscape="http://www.inkscape.org/namespaces/inkscape"
   xmlns:sodipodi="http://sodipodi.sourceforge.net/DTD/sodipodi-0.dtd"
   xmlns="http://www.w3.org/2000/svg"
   xmlns:svg="http://www.w3.org/2000/svg"
   xmlns:rdf="http://www.w3.org/1999/02/22-rdf-syntax-ns#"
   xmlns:cc="http://creativecommons.org/ns#"
   xmlns:dc="http://purl.org/dc/elements/1.1/">
  <sodipodi:namedview
     id="namedview278"
     pagecolor="#ffffff"
     bordercolor="#666666"
     borderopacity="1.0"
     inkscape:pageshadow="2"
     inkscape:pageopacity="0.0"
     inkscape:pagecheckerboard="0"
     showgrid="false"
     inkscape:zoom="50"
     inkscape:cx="7.99"
     inkscape:cy="8"
     inkscape:window-width="1920"
     inkscape:window-height="1009"
     inkscape:window-x="-8"
     inkscape:window-y="-8"
     inkscape:window-maximized="1"
     inkscape:current-layer="svg276" />
  <defs
     id="defs254">
    <style
       id="style252">.canvas{fill: none; opacity: 0;}.light-defaultgrey-10{fill: #212121; opacity: 0.1;}.light-defaultgrey{fill: #212121; opacity: 1;}.light-blue{fill: #005dba; opacity: 1;}.cls-1{opacity:0.75;}</style>
  </defs>
  <title
     id="title256">UserBuild</title>
  <g
     id="canvas">
    <path
       class="canvas"
       d="M16,16H0V0H16Z"
       id="path258" />
  </g>
  <g
     id="level-1">
    <g
       class="cls-1"
       id="g265">
      <path
         class="light-defaultgrey-10"
         d="M 15,7.023 V 8 C 12.838785,5.1135648 8.2471111,6.6441227 8.25,10.25 8.2498588,10.931822 8.4381195,11.600424 8.794,12.182 7.9293612,12.904843 7.3327543,13.897309 7.1,15 H 7 c 2.712e-4,-0.167051 0.00962,-0.333963 0.028,-0.5 H 1.5 V 5 H 4.129 V 7.6 L 8.728,7.56 11.848,5.92 14,5 v 1.09 c 0.387498,0.2473416 0.726422,0.5635577 1,0.933 z"
         id="path261"
         sodipodi:nodetypes="cccccccccccccccc" />
      <path
         class="light-defaultgrey"
         d="M7.1,15H1.5L1,14.5V5H2v9H7.426A4.966,4.966,0,0,0,7.1,15ZM14,7.079V5h1V8A3.78,3.78,0,0,0,14,7.079Z"
         id="path263" />
    </g>
    <path
       class="light-defaultgrey-10"
       d="M15.5,16h-7a3.5,3.5,0,0,1,7,0Zm-1.25-5.75A2.25,2.25,0,1,0,12,12.5,2.25,2.25,0,0,0,14.25,10.25Z"
       id="path267" />
    <path
       class="light-defaultgrey"
       d="M7,10V8H9l-.084.125-.043.064L8.8,8.3c-.032.052-.048.113-.077.167a3.764,3.764,0,0,0-.235.512c-.034.093-.061.186-.088.282a3.858,3.858,0,0,0-.1.553c-.007.064-.031.122-.035.187Zm0,1H5v2H7ZM5,8H3v2H5Z"
       id="path269" />
    <path
       class="light-defaultgrey"
       d="M13.7,12.394a2.75,2.75,0,1,0-3.4,0A4,4,0,0,0,8,16H9a3,3,0,0,1,6,0h1A4,4,0,0,0,13.7,12.394ZM10.25,10.25A1.75,1.75,0,1,1,12,12,1.752,1.752,0,0,1,10.25,10.25Z"
       id="path271" />
  </g>
  <path
     class="light-red"
     d="M 8.207,4.12 10.354,6.266 9.646,6.974 7.5,4.827 5.354,6.974 4.646,6.266 6.793,4.12 4.646,1.974 5.354,1.266 7.5,3.413 9.646,1.266 10.354,1.974 Z"
     id="path1454"
     style="fill:#c50b17" />
  <metadata
     id="metadata2255">
    <rdf:RDF>
      <cc:Work
         rdf:about="">
        <dc:title>UserBuild</dc:title>
      </cc:Work>
    </rdf:RDF>
  </metadata>
</svg>
