<svg xmlns="http://www.w3.org/2000/svg" viewBox="0 0 16 16">
  <defs>
    <style>.canvas{fill: none; opacity: 0;}.light-blue-10{fill: #005dba; opacity: 0.1;}.light-blue{fill: #005dba; opacity: 1;}.light-defaultgrey{fill: #212121; opacity: 1;}.white{fill: #ffffff; opacity: 1;}</style>
  </defs>
  <title>WelcomeWebTutorial</title>
  <g id="canvas">
    <path class="canvas" d="M16,16H0V0H16Z" />
  </g>
  <g id="level-1">
    <path class="light-blue-10" d="M12.6,3.4A6.52,6.52,0,0,0,1.99,5.51a6.2,6.2,0,0,0-.47,2.16c.16-.09.33-.18.51-.26A4.989,4.989,0,0,1,4,7.01a3.313,3.313,0,0,1,.55.04,4.078,4.078,0,0,1,.98.21A4.963,4.963,0,0,1,8.58,10a4.861,4.861,0,0,1,.32,1A5.578,5.578,0,0,1,9,12.01a4.987,4.987,0,0,1-.2,1.4,4.433,4.433,0,0,1-.46,1.07,6.381,6.381,0,0,0,2.15-.47A6.512,6.512,0,0,0,12.6,3.4Z" />
    <path class="light-blue" d="M12.95,3.05A7,7,0,0,0,1.53,5.32,6.773,6.773,0,0,0,1,8.02a3.639,3.639,0,0,1,.52-.35c.16-.09.33-.18.51-.26A6.139,6.139,0,0,1,2.35,6H4.7a9.477,9.477,0,0,0-.15,1.05,4.078,4.078,0,0,1,.98.21A10.956,10.956,0,0,1,5.72,6h4.56a9.648,9.648,0,0,1,.22,2,9.648,9.648,0,0,1-.22,2H8.58a4.861,4.861,0,0,1,.32,1h1.11A9.394,9.394,0,0,1,8.8,13.41a4.433,4.433,0,0,1-.46,1.07A3.575,3.575,0,0,1,8,15a7,7,0,0,0,7-7A7.019,7.019,0,0,0,12.95,3.05ZM11.3,6h2.35a5.85,5.85,0,0,1,0,4H11.3A10.354,10.354,0,0,0,11.3,6ZM4.95,5H2.81a6.067,6.067,0,0,1,3.4-2.73A10.4,10.4,0,0,0,4.95,5ZM6,5A9.525,9.525,0,0,1,7.63,2.02C7.75,2.01,7.87,2,8,2s.25.01.37.02A9.327,9.327,0,0,1,10,5ZM9.79,2.27A6.067,6.067,0,0,1,13.19,5H11.05A10.577,10.577,0,0,0,9.79,2.27ZM11.05,11h2.14a6.067,6.067,0,0,1-3.4,2.73A10.733,10.733,0,0,0,11.05,11Z" />
    <path class="light-defaultgrey" d="M4,16.009a4,4,0,1,1,4-4A4,4,0,0,1,4,16.009Z" />
    <path class="white" d="M4.625,14.509A.625.625,0,1,1,4,13.884.625.625,0,0,1,4.625,14.509Zm.587-4.842a1.534,1.534,0,0,1,.5,1.137c0,.775-.546,1.116-1.085,1.638a.543.543,0,0,0-.167.264,1.55,1.55,0,0,0-.033.508H3.571v-.3a1.3,1.3,0,0,1,.094-.509,1.705,1.705,0,0,1,.235-.395c.3-.373.426-.315.863-.879a.457.457,0,0,0,.094-.326A.833.833,0,0,0,4,10a.831.831,0,0,0-.857.8H2.286A1.731,1.731,0,0,1,5.212,9.667Z" />
  </g>
</svg>
